<?xml version="1.0" standalone="no"?>
<!DOCTYPE svg PUBLIC "-//W3C//DTD SVG 20010904//EN"
 "http://www.w3.org/TR/2001/REC-SVG-20010904/DTD/svg10.dtd">
<svg version="1.0" xmlns="http://www.w3.org/2000/svg"
 width="428.000000pt" height="583.000000pt" viewBox="0 0 428.000000 583.000000"
 preserveAspectRatio="xMidYMid meet">

<g transform="translate(0.000000,583.000000) scale(0.100000,-0.100000)"
fill="#000000" stroke="none">
<path d="M1695 3876 c-16 -6 -34 -14 -40 -19 -5 -4 -32 -24 -60 -45 -27 -20
-51 -40 -53 -44 -2 -5 -9 -8 -16 -8 -6 0 -33 -19 -59 -42 -49 -45 -90 -111
-102 -169 -4 -19 -16 -46 -26 -61 -11 -14 -19 -32 -19 -40 0 -8 -4 -18 -9 -23
-18 -21 -48 -157 -63 -283 -12 -108 -14 -110 -112 -113 -37 -1 -69 -6 -72 -11
-3 -4 -18 -8 -34 -8 -16 0 -31 -4 -34 -9 -3 -4 -29 -11 -58 -15 -45 -6 -60
-14 -100 -54 -27 -25 -48 -50 -48 -55 0 -5 -6 -23 -14 -40 -8 -18 -17 -43 -22
-57 -21 -69 -43 -1018 -25 -1082 6 -21 16 -57 22 -80 6 -24 15 -52 20 -63 4
-11 11 -36 15 -55 6 -32 33 -81 59 -105 20 -19 74 -55 83 -55 5 0 17 -9 27
-20 16 -18 31 -20 140 -20 106 0 124 -2 129 -17 8 -19 30 -311 27 -362 -2 -44
-5 -48 -48 -55 -59 -11 -185 -56 -215 -78 -21 -15 -28 -28 -28 -54 0 -31 5
-36 53 -60 95 -49 270 -86 597 -126 131 -17 791 -17 940 0 406 44 647 108 675
179 6 18 -27 58 -65 78 -42 21 -142 54 -188 61 -23 4 -44 10 -47 13 -2 4 8 32
22 62 39 84 52 136 59 237 4 51 11 95 15 98 5 3 9 18 9 34 0 16 4 31 8 34 5 3
12 54 15 113 4 59 11 109 16 112 5 3 11 33 14 66 10 100 19 149 30 164 17 20
16 496 0 512 -9 9 -13 50 -13 131 0 113 1 118 24 133 33 22 94 152 102 217 l6
54 57 22 c31 12 72 25 91 28 19 4 43 13 52 22 16 14 16 16 -4 45 -37 52 -98
105 -127 112 -28 6 -92 68 -168 161 -39 47 -93 151 -93 178 0 6 -16 32 -35 59
-30 39 -40 47 -68 47 -28 0 -44 12 -115 89 -46 48 -98 97 -117 107 -19 10 -35
22 -35 26 0 8 -125 68 -141 68 -5 0 -9 3 -9 8 0 10 -50 32 -72 32 -10 0 -18 4
-18 9 0 4 -31 13 -69 20 -93 15 -625 13 -666 -3z m649 -193 c44 -14 109 -41
145 -61 77 -40 178 -132 158 -143 -17 -10 -129 -27 -257 -40 -58 -6 -143 -17
-190 -25 -47 -9 -101 -17 -120 -19 -168 -14 -276 -103 -299 -245 -14 -83 -14
-267 -1 -275 6 -3 10 -26 10 -50 0 -44 6 -60 71 -203 38 -82 77 -121 176 -170
142 -72 302 -87 513 -46 41 8 100 19 130 25 30 5 92 22 137 36 105 32 117 30
121 -25 2 -27 8 -42 16 -42 11 0 15 -44 21 -202 7 -208 4 -326 -14 -458 -23
-177 -51 -329 -73 -390 -19 -56 -22 -82 -20 -185 2 -89 -2 -133 -14 -172 -25
-79 -41 -86 -216 -91 -81 -3 -162 -2 -181 2 -36 7 -38 10 -66 97 -14 45 -14
144 0 239 l12 75 71 35 71 35 -170 6 c-158 6 -281 19 -304 33 -11 7 -74 -18
-88 -36 -18 -22 -28 -156 -24 -320 l3 -157 -39 -36 c-74 -70 -145 -95 -269
-95 -90 0 -128 8 -217 47 -43 19 -43 21 -52 158 -4 54 -11 108 -17 118 -6 12
-7 45 -3 81 4 43 0 100 -15 187 -20 120 -21 154 -18 880 3 745 3 755 24 804
12 28 27 86 34 130 23 159 27 175 57 232 16 32 33 71 37 86 4 19 12 27 24 25
10 -2 35 17 61 45 24 26 48 47 53 47 6 0 27 13 47 29 20 15 56 38 81 49 43 20
58 20 280 15 216 -4 241 -7 314 -30z m578 -385 c16 -17 36 -45 45 -62 34 -67
77 -119 139 -167 51 -41 64 -56 64 -79 0 -26 -8 -31 -93 -69 -52 -22 -114 -48
-138 -56 -24 -9 -58 -24 -76 -35 -41 -24 -127 -50 -166 -50 -32 0 -47 14 -181
160 -38 41 -75 85 -83 97 -23 35 -55 201 -43 224 15 27 75 40 245 54 248 20
252 20 287 -17z m-682 -112 c0 -30 4 -57 9 -60 4 -3 11 -26 13 -50 6 -47 80
-187 118 -221 11 -10 20 -22 20 -27 0 -11 -93 -10 -105 1 -6 5 -27 14 -49 21
-48 15 -109 70 -143 127 -21 36 -46 110 -70 209 -4 20 2 23 74 37 43 8 90 15
106 16 26 1 27 0 27 -53z m-1036 -332 c12 -5 14 -18 8 -77 -3 -40 -6 -92 -5
-117 1 -25 1 -189 2 -365 0 -178 7 -411 16 -525 8 -113 15 -231 15 -262 l0
-58 -107 0 -108 0 -62 40 c-68 43 -66 38 -82 175 -24 202 -33 355 -28 435 3
47 11 164 17 259 5 96 14 177 19 180 4 4 11 20 14 36 3 17 11 53 16 80 6 28
13 70 17 94 5 31 16 52 38 71 26 24 39 28 105 29 41 1 77 4 80 6 6 7 26 6 45
-1z m1017 -1574 l26 0 -5 -91 c-3 -54 -1 -99 6 -112 6 -12 13 -36 16 -53 3
-18 8 -44 12 -58 l6 -27 -93 3 c-94 3 -94 3 -91 28 2 14 6 86 8 160 3 74 7
141 10 149 3 10 15 12 42 7 20 -3 49 -6 63 -6z"/>
<path d="M2900 3180 c-32 -32 -13 -63 42 -71 59 -9 88 -25 88 -49 0 -21 -13
-25 -64 -21 -36 3 -31 -19 7 -32 41 -13 81 10 85 50 4 41 -27 63 -90 63 -51 0
-63 9 -53 40 4 13 15 20 33 20 21 0 24 2 12 10 -23 15 -38 12 -60 -10z"/>
<path d="M2816 3142 c-3 -6 3 -29 14 -51 24 -46 29 -99 10 -111 -26 -16 -55 7
-89 69 -21 41 -37 59 -43 53 -15 -15 30 -109 62 -132 52 -37 110 -15 110 41 0
60 -47 158 -64 131z"/>
<path d="M2557 3062 c-30 -33 -15 -72 28 -72 39 0 93 -20 100 -37 9 -24 -21
-43 -55 -36 -37 7 -49 -14 -15 -27 39 -15 53 -12 80 14 44 44 13 88 -69 96
-46 5 -51 7 -51 30 0 17 7 26 25 30 22 5 23 7 7 13 -27 10 -32 9 -50 -11z"/>
</g>
</svg>
